<?xml version="1.0" encoding="UTF-8"?>
<!DOCTYPE svg PUBLIC "-//W3C//DTD SVG 1.1//EN" "http://www.w3.org/Graphics/SVG/1.1/DTD/svg11.dtd">
<!-- Creator: CorelDRAW X7 -->
<svg xmlns="http://www.w3.org/2000/svg" xml:space="preserve" width="100px" height="100px" version="1.1" shape-rendering="geometricPrecision" text-rendering="geometricPrecision" image-rendering="optimizeQuality" fill-rule="evenodd" clip-rule="evenodd"
viewBox="0 0 17331 17331"
 xmlns:xlink="http://www.w3.org/1999/xlink">
 <g id="Слой_x0020_1">
  <metadata id="CorelCorpID_0Corel-Layer"/>
  <rect fill="none" width="17331" height="17331"/>
  <path fill="#000100" stroke="#000100" stroke-width="28.8981" d="M71 12146c1695,-190 2447,-275 2447,-275 -4,3130 3173,2945 3230,519 0,-3920 0,-7840 0,-11760 1747,0 2621,0 2621,0 0,1660 0,2490 0,2490 3078,0 4618,0 4618,0 4492,437 4546,6595 104,7209 1722,1176 3085,3716 4118,5491 -2101,-18 -3152,-26 -3152,-26 -1607,-2600 -2446,-5256 -5720,-5096 91,1870 -82,3127 -519,3773 -1804,3032 -7650,2762 -7747,-2325zm8291 -3626c0,-2135 0,-3203 0,-3203 2240,-9 3589,-5 4048,13 1822,430 1673,2846 -78,3203 -2646,-9 -3970,-13 -3970,-13z"/>
 </g>
</svg>
