<?xml version="1.0" encoding="UTF-8"?>
<!DOCTYPE svg PUBLIC "-//W3C//DTD SVG 1.1//EN" "http://www.w3.org/Graphics/SVG/1.1/DTD/svg11.dtd">
<!-- Creator: CorelDRAW X8 -->
<svg xmlns="http://www.w3.org/2000/svg" xml:space="preserve" width="210px" height="210px" version="1.1" style="shape-rendering:geometricPrecision; text-rendering:geometricPrecision; image-rendering:optimizeQuality; fill-rule:evenodd; clip-rule:evenodd"
viewBox="0 0 212 212"
 xmlns:xlink="http://www.w3.org/1999/xlink">
 <defs>
  <style type="text/css">
   <![CDATA[
    .fil0 {fill:#333333}
   ]]>
  </style>
 </defs>
 <g id="Слой_x0020_1">
  <metadata id="CorelCorpID_0Corel-Layer"/>
  <path class="fil0" d="M88 67c-6,1 -9,4 -9,11l0 56c0,7 3,10 8,11 5,2 10,-2 13,-4l36 -21c4,-2 10,-5 12,-7 3,-4 4,-9 0,-13 -3,-3 -40,-25 -47,-29 -4,-2 -9,-5 -13,-4zm8 -59c31,-3 67,11 86,35 22,28 29,62 17,96 -5,14 -15,31 -27,40 -1,1 -2,2 -3,3 -4,4 -9,7 -15,10 -10,6 -23,10 -37,12 -58,6 -103,-36 -108,-87 -2,-15 0,-30 4,-43 6,-17 17,-33 30,-44 16,-12 31,-19 53,-22zm107 142c1,-4 2,-6 4,-10 7,-23 7,-45 0,-68 -4,-12 -13,-28 -23,-37 -3,-3 -1,-2 -5,-5 0,-1 -1,-1 -1,-2l-8 -6c-32,-24 -70,-29 -107,-13 -10,5 -24,15 -32,22l-6 7c-15,20 -25,40 -25,68 0,25 11,55 28,72l5 4c1,1 1,1 2,2 10,10 24,18 37,23 4,1 7,2 11,3 14,3 32,3 47,0 10,-3 11,-4 20,-7 4,-2 13,-7 17,-10 4,-3 12,-9 15,-14 1,0 2,-1 2,-1 2,-2 2,-2 3,-4 1,-1 2,-2 3,-4 4,-4 11,-15 13,-20z"/>
 </g>
</svg>
